# xmcd CD database file
#
# Track frame offsets:
#	150
#	21444
#	44069
#
# Disc length: 869 seconds
#
# Revision: 0
# Processed by: cddbd v1.5.1PL0 Copyright (c) Steve Scherf et al.
# Submitted via: CDex 1.60beta1
#
DISCID=25036303
DTITLE=東真紀 - 向日葵〜一期一会の命〜
DYEAR=2005
DGENRE=JPop
TTITLE0=向日葵〜一期一会の命〜
TTITLE1=たからもの
TTITLE2=向日葵〜一期一会の命〜（オリジナル・カラオケ）
EXTD=YEAR: 2005/08/31
EXTT0=
EXTT1=
EXTT2=
PLAYORDER=
